<?xml version="1.0" standalone="no"?>
<!DOCTYPE svg PUBLIC "-//W3C//DTD SVG 20010904//EN"
 "http://www.w3.org/TR/2001/REC-SVG-20010904/DTD/svg10.dtd">
<svg version="1.0" xmlns="http://www.w3.org/2000/svg"
 width="354.000000pt" height="354.000000pt" viewBox="0 0 354.000000 354.000000"
 preserveAspectRatio="xMidYMid meet">

<g transform="translate(0.000000,354.000000) scale(0.100000,-0.100000)"
fill="#000000" stroke="none">
<path d="M0 1770 l0 -1770 1770 0 1770 0 0 1770 0 1770 -1770 0 -1770 0 0
-1770z m2309 1071 c375 -163 596 -429 675 -817 23 -109 39 -329 31 -429 -23
-319 -140 -581 -353 -790 -153 -151 -356 -248 -627 -302 -61 -11 -170 -16
-453 -20 l-372 -5 2 679 3 678 112 3 113 3 2 -573 3 -573 115 -3 c138 -4 373
13 467 32 227 48 374 126 510 269 203 214 287 528 238 887 -48 352 -195 573
-487 730 l-78 42 0 114 c0 63 2 114 4 114 3 0 46 -18 95 -39z m-601 -329 c242
-54 387 -128 525 -268 37 -38 85 -96 107 -129 76 -114 130 -293 130 -431 l0
-64 -115 0 -115 0 0 73 c0 157 -62 302 -179 417 -87 86 -175 135 -314 175
-133 37 -225 45 -544 45 l-293 0 0 -675 0 -675 -115 0 -115 0 0 781 0 781 468
-5 c428 -4 475 -6 560 -25z"/>
</g>
</svg>
